<svg width="94" height="42" viewBox="0 0 94 42" fill="none" xmlns="http://www.w3.org/2000/svg">
<path fill-rule="evenodd" clip-rule="evenodd" d="M92.8956 39.6831C92.7737 39.4456 92.5674 39.2624 92.3172 39.1694C92.0665 39.0789 91.7909 39.0862 91.5454 39.1899C91.4238 39.2418 91.3131 39.3159 91.2189 39.4086C91.1256 39.502 91.0501 39.6116 90.9959 39.732C90.9433 39.8503 90.9139 39.9775 90.9065 40.1153C90.9027 40.2432 90.9212 40.3707 90.9612 40.4923C91.0432 40.7365 91.2122 40.942 91.436 41.0696C91.5469 41.1332 91.6679 41.1752 91.7946 41.1957C91.9846 41.2251 92.179 41.2021 92.3568 41.1292C92.5347 41.0563 92.6894 40.9362 92.8041 40.782C92.8793 40.6794 92.9366 40.5601 92.9702 40.4402C93.0039 40.3203 93.0154 40.1936 93.0039 40.0622C92.9913 39.9302 92.9546 39.8017 92.8956 39.6831ZM92.7867 40.5075C92.739 40.6165 92.6706 40.7153 92.5853 40.7983C92.5004 40.8815 92.3996 40.9468 92.2888 40.9902C92.1784 41.034 92.0604 41.0557 91.9416 41.0539C91.8228 41.0522 91.7055 41.027 91.5964 40.9799C91.4873 40.9328 91.3886 40.8646 91.3058 40.7793C91.2231 40.694 91.158 40.5933 91.1142 40.4828C91.0706 40.372 91.0486 40.2538 91.0495 40.1347C91.0519 40.0291 91.0719 39.9246 91.109 39.8256C91.1861 39.6272 91.3295 39.4617 91.5149 39.3571C91.6537 39.2802 91.8103 39.241 91.969 39.2433C92.1278 39.2456 92.2831 39.2894 92.4197 39.3702C92.6021 39.48 92.7405 39.6499 92.8109 39.8508C92.8446 39.9481 92.8614 40.0522 92.8614 40.1621C92.858 40.2808 92.8327 40.3979 92.7867 40.5075Z" fill="black"/>
<path fill-rule="evenodd" clip-rule="evenodd" d="M92.303 40.1962C92.3714 40.151 92.4217 40.083 92.4449 40.0043C92.468 39.925 92.4613 39.8401 92.4262 39.7653C92.3911 39.6906 92.3299 39.6313 92.2541 39.5984C92.2167 39.5819 92.1766 39.5722 92.1358 39.5695H91.5322V40.7657L91.6904 40.7688V40.2494L92.0138 40.2462L92.2819 40.7688H92.4607L92.1915 40.2441C92.2313 40.2353 92.2691 40.219 92.303 40.1962ZM91.6868 40.1011V39.7188H92.1211C92.1686 39.7247 92.2123 39.7477 92.2441 39.7835C92.3025 39.8576 92.3193 39.9439 92.242 40.0411C92.2098 40.0766 92.1656 40.0989 92.1179 40.1037L91.6868 40.1011ZM1.18565 17.3712C1.59871 18.6822 2.24667 19.9072 3.0979 20.9864C4.09535 22.2518 5.28112 23.3565 6.61378 24.262C7.33975 24.7543 8.137 25.1322 8.97768 25.3824C9.55732 25.5551 10.146 25.6957 10.7411 25.8036C11.7706 25.9866 12.8316 26.0912 13.8848 26.0439C14.3327 26.0247 14.7792 25.9808 15.2223 25.9124C16.1618 25.7677 17.0835 25.5247 17.9722 25.1874C18.936 24.8225 19.8589 24.3575 20.7257 23.7999C21.5563 23.2671 22.3258 22.6445 23.0202 21.9433C23.3482 22.0921 23.6763 22.2372 24.0039 22.3182C24.6559 22.4775 25.3104 22.6048 25.9671 22.6363C26.8652 22.6731 27.7779 22.4886 28.6886 22.1268C29.003 22.0038 29.3158 21.794 29.6276 21.5674L29.615 18.2566C29.3442 18.5084 29.0734 18.734 28.8021 18.8896C28.4336 19.1047 28.0603 19.2882 27.6833 19.4454C27.2616 19.6241 26.8331 19.6515 26.4014 19.6583C26.1806 19.6594 25.9598 19.6457 25.739 19.6173C25.3516 19.5674 24.9737 19.4608 24.6175 19.3008L30.6918 14.2091L30.7149 22.2083L33.9143 22.2257L33.8706 15.0956C33.8384 14.8286 33.8472 14.5581 33.8969 14.2938C33.9369 14.0763 34.0175 13.8683 34.1346 13.6807C34.336 13.3581 34.5958 13.0759 34.9006 12.8484C35.0321 12.7512 35.1709 12.6697 35.3171 12.6045C35.6483 12.453 36.0368 12.3947 36.4007 12.401C36.6089 12.4052 36.8161 12.4325 37.0227 12.4825C37.428 12.5815 37.8059 12.7704 38.1284 13.0351C38.2498 13.1355 38.3592 13.2464 38.4544 13.3689C38.5485 13.4904 38.6305 13.6234 38.6978 13.7664C38.8495 14.0862 38.9358 14.4329 38.9518 14.7864L38.9265 22.1968L41.9682 22.1904L42.0297 14.2575C42.0229 13.7128 41.9061 13.175 41.6863 12.6765L43.29 12.6875L43.2758 22.2472L46.5061 22.2504L46.5356 12.7475L47.4394 12.7454L47.4468 17.1488C47.4305 17.5715 47.462 17.9932 47.5445 18.4138C47.6201 18.804 47.7447 19.1831 47.9152 19.5421C48.1349 20.0058 48.4111 20.4406 48.7375 20.8366C49.0076 21.1622 49.3255 21.4452 49.6803 21.6757C49.8876 21.8107 50.1048 21.9299 50.3301 22.0322C51.0951 22.376 51.9148 22.5149 52.7124 22.528C53.0473 22.5312 53.3802 22.4912 53.7114 22.4071C53.9207 22.3524 54.1252 22.2877 54.3276 22.2141C54.529 22.1389 54.7272 22.0537 54.9202 21.9596C55.1494 21.8508 55.3813 21.6741 55.6042 21.4728C55.6925 21.3939 55.7777 21.3113 55.8597 21.2262L55.8587 22.2572L59.0112 22.2898L59.0244 9.61857L55.5122 9.60385L55.5458 16.6109C55.5448 17.1014 55.4933 17.5894 55.3928 18.0762C55.232 18.4416 55.0162 18.7803 54.753 19.0805C54.6564 19.1897 54.5488 19.2885 54.4317 19.3754C54.3142 19.4616 54.1883 19.5356 54.0558 19.5963C53.7549 19.7315 53.4287 19.8012 53.0989 19.8008C52.7521 19.8003 52.409 19.7295 52.0904 19.5926C51.8378 19.4837 51.6097 19.3251 51.4195 19.1262C51.2878 18.9878 51.1664 18.8401 51.0562 18.684C50.9449 18.5282 50.8454 18.3642 50.7586 18.1935C50.5462 17.7802 50.5068 17.3512 50.5184 16.9243L50.5294 9.56757L46.3831 9.54391L46.3863 5.71414L43.1874 5.67313L43.1953 9.50342L41.5228 9.48134L41.5144 11.7306L41.2378 11.7222C41.1064 11.544 40.9776 11.3715 40.8104 11.1912C40.7814 11.1614 40.751 11.133 40.7194 11.106C40.2801 10.7258 39.811 10.3813 39.3167 10.076C38.7238 9.70644 38.0433 9.50105 37.345 9.48081C36.7176 9.46482 36.092 9.55513 35.4948 9.74791C35.2824 9.81521 35.0741 9.89408 34.8701 9.98556C34.4901 10.155 34.1316 10.3691 33.8023 10.6233L33.8002 9.50395L30.6587 9.49028L30.6282 11.1286C30.4876 11.0127 30.3435 10.9012 30.196 10.7942C29.9541 10.6218 29.7054 10.4477 29.4578 10.3257C29.3601 10.2768 29.2599 10.233 29.1576 10.1948C28.4174 9.91616 27.6502 9.71562 26.8683 9.59649C26.3074 9.51038 25.737 9.50595 25.1748 9.58334C24.4367 9.6842 23.7172 9.89215 23.0391 10.2006C22.1038 10.6253 21.2844 11.2687 20.65 12.0766C20.4362 12.3477 20.2442 12.6353 20.0758 12.9368C19.6606 13.682 19.4013 14.5038 19.3135 15.3523C19.2257 16.2008 19.3114 17.0584 19.5653 17.8728C19.6662 18.1966 19.7924 18.5137 19.9454 18.8218C19.825 18.9595 19.7025 19.0941 19.5758 19.2256C19.3765 19.4296 19.1704 19.642 18.968 19.8003C18.8918 19.86 18.813 19.9165 18.7319 19.9696C17.9488 20.4805 17.121 20.9194 16.2587 21.2809C15.9742 21.3992 15.684 21.4975 15.3895 21.5763C14.7192 21.7562 14.0078 21.8208 13.3138 21.8114C12.9214 21.8049 12.53 21.7713 12.1423 21.7109C11.3194 21.5834 10.5166 21.349 9.75425 21.0138C9.03162 20.6964 8.35344 20.2861 7.73684 19.7934C7.22452 19.3841 6.77956 18.8969 6.41819 18.3496C6.14685 17.939 5.90829 17.5075 5.70471 17.0594C5.32668 16.2229 5.04801 15.3138 4.97388 14.4205C4.93707 13.9999 4.93813 13.5756 4.97756 13.1476C5.1394 11.4395 5.76642 9.8085 6.79044 8.43189C7.13074 7.97673 7.51117 7.55301 7.92717 7.16581C8.20502 6.90823 8.50559 6.6763 8.8252 6.47284C9.14512 6.27013 9.48263 6.09662 9.83365 5.95442C10.268 5.77946 10.7145 5.63642 11.1696 5.52644C12.0599 5.3105 12.9769 5.22618 13.8916 5.27617C14.3354 5.3014 14.7786 5.35977 15.2187 5.4502C16.1851 5.64982 17.1206 5.97728 18.0006 6.42394C18.1593 6.50491 18.3118 6.59535 18.4575 6.69524C18.6036 6.79514 18.7419 6.90503 18.8739 7.02491C19.2811 7.39273 19.6557 7.79523 19.9933 8.22788L24.9966 8.19476C24.6173 7.31054 24.1451 6.46913 23.588 5.6847C23.1467 5.06215 22.623 4.50235 22.0312 4.02061C20.9367 3.1272 19.7271 2.38499 18.4348 1.81392C17.3267 1.32348 16.1482 1.01101 14.9426 0.888025C13.5364 0.744269 12.1163 0.822334 10.7343 1.11937C9.33929 1.42026 7.99955 1.93626 6.7631 2.64885C5.60202 3.31867 4.55242 4.16535 3.65207 5.15839C2.82833 6.06773 2.16517 7.11048 1.69092 8.24208C1.38262 8.98106 1.13726 9.74475 0.957461 10.525C0.778827 11.3056 0.666436 12.0999 0.621488 12.8994C0.539263 14.4118 0.730373 15.9266 1.18565 17.3712ZM22.2825 15.3695C22.3396 15.0387 22.4552 14.7208 22.6237 14.4305C22.9263 13.9078 23.3405 13.4583 23.8367 13.1139C23.997 13.0032 24.1652 12.9043 24.3399 12.8179C24.5042 12.7368 24.6745 12.6686 24.8493 12.6139C25.5343 12.3975 26.27 12.4025 26.9519 12.6281C27.1228 12.6833 27.29 12.7522 27.4519 12.8337L22.599 17.0394C22.5252 16.9038 22.4621 16.7626 22.4103 16.6172C22.2683 16.2192 22.2078 15.7865 22.2825 15.3695ZM63.2064 14.0251C63.3163 13.7917 63.4541 13.5856 63.6223 13.4068C63.7935 13.2251 63.9929 13.0722 64.2128 12.9541C64.4283 12.8379 64.6623 12.758 64.9173 12.7128L64.9278 21.0421L61.504 26.1159H65.2181L76.9713 9.57072L73.1184 9.55127L68.1871 16.0909L68.1614 9.52235L65.1113 9.55495C64.7491 9.59701 64.4068 9.68744 64.0855 9.82677C63.7599 9.96911 63.4571 10.1589 63.187 10.3899L63.1922 9.62435L60.0696 9.59964L60.015 22.2551L63.187 22.2888L63.2064 14.0251ZM82.7117 18.2539L82.7065 20.835C82.2648 20.3653 81.7707 19.9479 81.2338 19.591C80.7041 19.2389 80.1352 18.9495 79.5387 18.7287C78.8818 18.4868 78.1992 18.3215 77.5044 18.2361C77.1992 18.1988 76.8918 18.1816 76.5843 18.1845C75.8503 18.1914 75.1095 18.3276 74.4034 18.5247C73.9887 18.6425 73.5823 18.7876 73.1867 18.959C72.5619 19.23 71.9873 19.6047 71.4874 20.0674C71.0923 20.4328 70.7618 20.8625 70.51 21.3382C70.3602 21.5732 70.2235 21.8135 70.0983 22.0611C69.9732 22.3087 69.8601 22.5622 69.7592 22.8209C69.5445 23.4565 69.3932 24.1118 69.3076 24.7773C69.267 25.2286 69.2579 25.6822 69.2802 26.1348L73.1494 26.108C73.0779 25.5138 73.1563 24.9112 73.3776 24.3551C73.4507 24.1753 73.539 24.0007 73.6426 23.8325C73.7523 23.6544 73.877 23.4861 74.0154 23.3293C74.4221 22.8603 74.9456 22.5071 75.5328 22.3056C75.7515 22.2304 75.9744 22.1752 76.1994 22.1394C76.6143 22.0748 77.0538 22.0653 77.445 22.16C77.628 22.202 77.8057 22.2635 77.9792 22.345C78.452 22.5678 78.8718 22.8888 79.2106 23.2867C79.5439 23.6787 79.7887 24.138 79.9283 24.6332C80.0455 25.1096 80.0576 25.5859 79.9672 26.0639C79.9178 26.2558 79.8562 26.4429 79.7821 26.6254C79.708 26.8078 79.6228 26.9861 79.5276 27.1596C79.4239 27.3982 79.2903 27.6228 79.1301 27.8278C78.9318 28.0826 78.7081 28.3166 78.4624 28.5261L69.6351 37.1625L69.6556 41.0995L84.5036 41.1395L84.4726 36.9869L75.9082 36.958L82.3816 30.4525C82.5077 30.309 82.6281 30.1597 82.7438 30.0067C82.86 29.8547 82.9699 29.6986 83.0756 29.5382C83.2596 29.2611 83.4126 28.9788 83.5419 28.6933C84.0225 27.6149 84.3164 26.5376 84.3201 25.4708C84.307 24.8856 84.2071 24.303 84.0819 23.722C83.9915 23.303 83.8311 22.885 83.6455 22.4681L85.7723 22.4949L85.756 41.1621L90.2025 41.2094L90.192 18.3191L82.7117 18.2539Z" fill="black"/>
<path fill-rule="evenodd" clip-rule="evenodd" d="M0.603149 38.467L0.617871 41.1474L47.1419 41.2078L47.1108 38.4733L0.603149 38.467ZM46.1991 28.4661L24.8836 33.4032L24.8725 35.98L46.2065 31.0509L67.6893 35.7203L67.6777 33.155L46.1991 28.4661Z" fill="#F9DC30"/>
<path fill-rule="evenodd" clip-rule="evenodd" d="M57.69 41.0427L60.3015 41.0396L60.3026 35.2476L57.6995 35.2366L57.69 41.0427Z" fill="#F9DC30"/>
</svg>
