<svg width="147" height="20" viewBox="0 0 147 20" fill="none" xmlns="http://www.w3.org/2000/svg">
<path d="M32.135 17.1519C29.2152 17.1519 26.611 15.4158 25.4667 12.7326C24.3224 10.0495 24.9537 6.93237 27.0055 4.88058C29.0573 2.82878 32.135 2.19746 34.8576 3.30227C37.5407 4.40708 39.3163 7.05074 39.3163 9.93115C39.2769 13.9164 36.0808 17.1519 32.135 17.1519ZM32.135 0.106206C28.1104 0.0667485 24.5197 2.47366 22.9809 6.14322C21.442 9.81278 22.2706 14.0742 25.0721 16.9151C27.8736 19.7561 32.135 20.5847 35.844 19.0853C39.5531 17.5859 41.96 13.9558 41.96 9.97061C41.9205 4.52546 37.5407 0.145664 32.135 0.106206Z" fill="#231F20"/>
<path d="M68.5544 0.658615C68.4755 0.658615 68.3966 0.698073 68.3177 0.776988L58.2165 14.5082L48.1154 0.776988C48.0759 0.698073 47.997 0.658615 47.8786 0.658615C47.7208 0.658615 47.6024 0.776988 47.6024 0.934818V19.2431H50.2855V8.43176L58.0587 18.9275C58.0981 18.9669 58.1376 19.0064 58.2165 19.0064C58.2954 19.0064 58.3349 18.9669 58.3743 18.9275L66.1475 8.43176V19.2431H68.8306V0.934818C68.8306 0.855903 68.7911 0.776988 68.7517 0.73753C68.7122 0.698073 68.6333 0.658615 68.5544 0.658615Z" fill="#231F20"/>
<path d="M85.2055 9.8917H78.9712V3.34173H85.2055C87.0206 3.34173 88.4805 4.80166 88.4805 6.61671C88.4805 8.43176 86.9811 9.8917 85.2055 9.8917ZM85.2055 0.658615H76.2881V19.2431H78.9712V12.6143H85.2055C88.4805 12.6143 91.1636 9.93115 91.1636 6.65617C91.1636 3.38119 88.4805 0.658615 85.2055 0.658615Z" fill="#231F20"/>
<path d="M10.0387 17.152C6.68485 17.152 3.72553 14.824 2.97584 11.549C2.22614 8.27406 3.88336 4.8807 6.9216 3.46023C9.99929 2.03975 13.6294 2.90782 15.6812 5.59094L17.6146 3.69697C14.9315 0.500908 10.5912 -0.722278 6.64539 0.698196C2.73909 2.11867 0.134888 5.82768 0.134888 9.97073C0.134888 14.1138 2.73909 17.8228 6.64539 19.2433C10.5517 20.6637 14.9315 19.4406 17.5752 16.2445L15.6417 14.3505C14.3396 16.1261 12.2484 17.152 10.0387 17.152Z" fill="#231F20"/>
<path d="M122.848 8.27393L120.796 7.80044C118.587 7.32695 118.429 5.82756 118.429 5.35407C118.429 3.81522 119.652 2.94716 121.743 2.94716C123.913 2.94716 125.492 4.40709 126.005 4.92004L127.899 3.06553C126.123 1.21102 124.15 0.303497 121.783 0.303497C118.192 0.303497 115.785 2.31584 115.785 5.31461C115.785 6.2616 115.785 9.18146 120.599 10.3652L122.848 10.8781C124.939 11.47 125.926 12.4564 125.926 13.9558C125.926 15.692 124.229 16.9152 121.822 16.9152C119.257 16.9152 117.679 15.1396 117.166 14.5477L115.312 16.3627C116.574 17.8227 118.744 19.5194 121.822 19.5194C125.689 19.5194 128.569 17.1124 128.569 13.9164C128.609 11.1149 126.636 9.142 122.848 8.27393Z" fill="#231F20"/>
<path d="M140.88 8.27393L138.828 7.80044C136.619 7.32695 136.461 5.82756 136.461 5.35407C136.461 3.81522 137.684 2.94716 139.775 2.94716C141.946 2.94716 143.524 4.40709 143.997 4.92004L145.891 3.06553C144.116 1.21102 142.103 0.303497 139.775 0.303497C136.185 0.303497 133.778 2.31584 133.778 5.31461C133.778 6.2616 133.778 9.18146 138.592 10.3652L140.841 10.8781C142.932 11.47 143.918 12.4564 143.918 13.9558C143.918 15.692 142.222 16.9152 139.815 16.9152C137.25 16.9152 135.632 15.1396 135.159 14.5477L133.265 16.4022C134.528 17.8621 136.698 19.5588 139.775 19.5588C143.642 19.5588 146.523 17.1519 146.523 13.9558C146.602 11.1543 144.629 9.142 140.88 8.27393Z" fill="#231F20"/>
<path d="M98.9368 11.7857L102.014 5.94593L105.092 11.7857H98.9368ZM102.014 0.500778C101.896 0.500778 101.817 0.579693 101.778 0.658609L92.0317 19.2431H95.0699L97.5557 14.4688H106.513L108.998 19.2431H112.037L102.251 0.658609C102.212 0.579693 102.133 0.500778 102.014 0.500778Z" fill="#231F20"/>
<path d="M27.9131 12.2986L29.807 14.1926L36.357 7.60316L34.463 5.7092L27.9131 12.2986Z" fill="#231F20"/>
</svg>
