<svg width="116" height="53" viewBox="0 0 116 53" fill="none" xmlns="http://www.w3.org/2000/svg">
<path d="M19.8898 43.8661H18.1905V52.0524H24.1382V50.5328H19.8898V43.8661Z" fill="#14377D"/>
<path d="M39.8081 48.1472L37.831 43.8824H37.6186L35.6414 48.1308L34.1382 43.8824H32.3244L35.3146 52.0197L35.3473 52.0687H35.5924L37.7329 47.4936L39.8571 52.0524H40.1185L43.1741 43.8824H41.3604L39.8081 48.1472Z" fill="#14377D"/>
<path d="M43.9258 52.0524H50.0042V50.5164H45.6251V48.7844H49.4976V47.2321H45.6251V45.3857H50.0042V43.8661H43.9258V52.0524Z" fill="#14377D"/>
<path d="M53.0761 43.8661H51.3767V52.0524H57.3244V50.5328H53.0761V43.8661Z" fill="#14377D"/>
<path d="M59.7918 43.8661H58.0924V52.0524H64.0401V50.5328H59.7918V43.8661Z" fill="#14377D"/>
<path d="M72.9127 46.2191C72.9127 46.3334 72.8963 46.4315 72.8637 46.5459C72.831 46.6602 72.7656 46.7583 72.7003 46.84C72.6349 46.9217 72.5369 47.0034 72.4388 47.0524C72.3408 47.1014 72.2101 47.1341 72.0794 47.1341H70.282V45.3857H72.1937C72.2918 45.3857 72.3735 45.4021 72.4715 45.4511C72.5532 45.5001 72.6349 45.5655 72.7003 45.6308C72.7656 45.7125 72.8146 45.7942 72.8637 45.8923C72.8963 46.0066 72.9127 46.1047 72.9127 46.2191ZM73.2558 49.5361C73.2558 49.6504 73.2395 49.7812 73.1905 49.8955C73.1414 50.0099 73.0761 50.1243 72.9944 50.2223C72.9127 50.3204 72.8146 50.4021 72.7166 50.4511C72.6186 50.5001 72.5042 50.5328 72.3898 50.5328H70.2983V48.6537H72.2264C72.5532 48.6537 72.8147 48.7354 72.9944 48.8988C73.1578 49.0785 73.2558 49.2746 73.2558 49.5361ZM74.3996 48.2779C74.2362 48.0981 74.0565 47.9674 73.8604 47.853C73.7787 47.8204 73.7133 47.7877 73.6316 47.755C73.697 47.7223 73.746 47.6897 73.8114 47.657C73.9748 47.5426 74.1218 47.4119 74.2362 47.2485C74.3506 47.0851 74.4486 46.9053 74.514 46.7256C74.5794 46.5295 74.612 46.3498 74.612 46.1864C74.612 45.7289 74.5467 45.3367 74.416 45.0426C74.2852 44.7485 74.1055 44.5034 73.8931 44.3236C73.6643 44.1439 73.4029 44.0295 73.1088 43.9642C72.8146 43.8988 72.5042 43.8661 72.1774 43.8661H68.5663V52.0524H72.3571C72.7003 52.0524 73.0434 52.0034 73.3539 51.9217C73.6643 51.84 73.9421 51.6929 74.1872 51.5132C74.416 51.3171 74.612 51.0557 74.7428 50.7452C74.8735 50.4347 74.9388 50.0426 74.9388 49.6014C74.9388 49.34 74.8898 49.0949 74.7918 48.8661C74.6937 48.6537 74.563 48.4576 74.3996 48.2779Z" fill="#14377D"/>
<path d="M80.4454 49.2909H78.4192L79.4323 47.1504L80.4454 49.2909ZM79.3016 43.8824L75.1186 52.0524H76.9813L77.6022 50.7942H81.2787L81.8996 52.0524H83.746L79.563 43.8824H79.3016Z" fill="#14377D"/>
<path d="M89.8898 48.621L84.7591 43.8988L84.7264 43.8824H84.4486V52.0524H86.148V47.3955L91.3114 52.0524H91.5891V43.8824H89.8898V48.621Z" fill="#14377D"/>
<path d="M100.086 43.8825H97.9944L94.9225 47.7877V43.8661H93.2231V52.0524H94.9225V48.5393L98.1741 52.0524H100.429L96.7199 48.0981L100.086 43.8825Z" fill="#14377D"/>
<path d="M101.164 52.0524H107.243V50.5164H102.864V48.7844H106.753V47.2321H102.864V45.3857H107.243V43.8661H101.164V52.0524Z" fill="#14377D"/>
<path d="M113.125 47.6733C113.011 47.7714 112.896 47.853 112.749 47.9021C112.602 47.9511 112.472 47.9838 112.341 47.9838H110.315V45.4021H112.341C112.586 45.4021 112.798 45.4511 112.945 45.5491C113.092 45.6472 113.207 45.7615 113.288 45.8923C113.37 46.023 113.419 46.17 113.452 46.3171C113.485 46.4805 113.501 46.6112 113.501 46.7256C113.501 46.938 113.468 47.1341 113.387 47.2812C113.321 47.4282 113.223 47.5589 113.125 47.6733ZM110.315 49.5034H111.704C111.998 49.9282 112.308 50.353 112.602 50.7615C112.913 51.1864 113.223 51.6112 113.55 52.0197L113.583 52.0524H115.609L115.511 51.9217C114.873 51.0393 114.22 50.1733 113.583 49.3073C114.056 49.0949 114.449 48.7844 114.726 48.3432C115.037 47.8694 115.2 47.3302 115.2 46.7093C115.2 46.3008 115.135 45.9086 114.988 45.5655C114.841 45.2223 114.645 44.9119 114.4 44.6668C114.155 44.4217 113.844 44.2093 113.501 44.0785C113.158 43.9478 112.766 43.8661 112.341 43.8661H108.615V52.0524H110.315V49.5034Z" fill="#14377D"/>
<path d="M7.34077 45.0099C7.07934 44.7485 6.78522 44.5197 6.47476 44.3236C6.1643 44.1276 5.80483 43.9805 5.44535 43.8825C5.08587 43.7844 4.69372 43.7191 4.30156 43.7191C3.72966 43.7191 3.17411 43.8334 2.65123 44.0622C2.1447 44.291 1.68718 44.5851 1.31136 44.9772C0.935545 45.3694 0.625088 45.8106 0.39633 46.3171C0.167572 46.8236 0.0531921 47.3792 0.0531921 47.9674C0.0531921 48.5557 0.167572 49.0949 0.39633 49.6177C0.625088 50.1406 0.919205 50.5818 1.31136 50.9576C1.70352 51.3334 2.1447 51.6439 2.65123 51.8726C3.15777 52.1014 3.71332 52.2158 4.30156 52.2158C4.69372 52.2158 5.08587 52.1668 5.44535 52.0524C5.80483 51.938 6.1643 51.8073 6.47476 51.6112C6.78522 51.4151 7.07934 51.1864 7.34077 50.9249C7.60221 50.6635 7.83097 50.3694 7.99437 50.0426L8.04339 49.9609L6.45842 49.3236L6.42574 49.3727C6.31136 49.5361 6.18064 49.6994 6.01725 49.8628C5.87019 50.0099 5.69045 50.157 5.51071 50.255C5.33097 50.3694 5.13489 50.4511 4.92247 50.5164C4.71005 50.5818 4.51398 50.6145 4.28522 50.6145C3.94208 50.6145 3.59894 50.5491 3.28849 50.4021C2.97803 50.255 2.71659 50.0589 2.48783 49.8302C2.25907 49.5851 2.07934 49.3073 1.94862 48.9805C1.8179 48.67 1.75254 48.3269 1.75254 47.9674C1.75254 47.6243 1.8179 47.2811 1.94862 46.9707C2.07934 46.6439 2.25907 46.3661 2.48783 46.121C2.71659 45.8759 2.97803 45.6798 3.28849 45.5491C3.59894 45.4021 3.92574 45.3367 4.28522 45.3367C4.49764 45.3367 4.71005 45.3694 4.92247 45.4347C5.11855 45.5001 5.31463 45.5818 5.51071 45.6962C5.69045 45.8106 5.87019 45.9413 6.01725 46.0883C6.1643 46.2354 6.31136 46.3988 6.42574 46.5622L6.45842 46.6112L8.04339 45.974L7.99437 45.8923C7.81463 45.5655 7.60221 45.2713 7.34077 45.0099Z" fill="#14377D"/>
<path d="M15.2983 47.9674C15.2983 48.3269 15.2329 48.6537 15.1022 48.9805C14.9715 49.291 14.7918 49.5851 14.563 49.8302C14.3342 50.0753 14.0565 50.2713 13.7623 50.4184C13.4519 50.5655 13.1251 50.6308 12.7819 50.6308C12.4388 50.6308 12.0957 50.5655 11.8016 50.4184C11.4911 50.2713 11.2297 50.0753 11.0009 49.8302C10.7721 49.5851 10.5924 49.3073 10.4617 48.9805C10.331 48.67 10.2656 48.3269 10.2656 47.9674C10.2656 47.6243 10.331 47.2811 10.4617 46.9707C10.5924 46.6439 10.7721 46.3661 11.0009 46.121C11.2297 45.8759 11.5074 45.6798 11.8016 45.5491C12.112 45.4021 12.4388 45.3367 12.7819 45.3367C13.1251 45.3367 13.4682 45.4021 13.7623 45.5491C14.0728 45.6962 14.3342 45.8923 14.563 46.121C14.7918 46.3661 14.9715 46.6439 15.1022 46.9707C15.2329 47.2811 15.2983 47.6243 15.2983 47.9674ZM15.7558 44.9609C15.38 44.5851 14.9225 44.2746 14.4159 44.0459C13.9094 43.8171 13.3538 43.7027 12.7656 43.7027C12.1937 43.7027 11.6382 43.8171 11.1153 44.0459C10.5924 44.2746 10.1512 44.5687 9.77541 44.9609C9.3996 45.3367 9.08914 45.7942 8.86038 46.3171C8.63162 46.84 8.51724 47.3955 8.51724 47.9674C8.51724 48.5557 8.63162 49.1112 8.86038 49.6177C9.08914 50.1243 9.38326 50.5818 9.77541 50.9576C10.1676 51.3334 10.6087 51.6439 11.1153 51.8726C11.6218 52.1014 12.1774 52.2158 12.7656 52.2158C13.3538 52.2158 13.9094 52.1014 14.4159 51.8726C14.9225 51.6439 15.38 51.3498 15.7558 50.9576C16.1316 50.5818 16.4421 50.1243 16.6708 49.6177C16.8996 49.1112 17.014 48.5557 17.014 47.9674C17.014 47.3955 16.8996 46.84 16.6708 46.3171C16.4421 45.7942 16.1316 45.3367 15.7558 44.9609Z" fill="#14377D"/>
<path d="M30.5597 47.9674C30.5597 48.5066 30.478 48.9478 30.331 49.2746C30.1839 49.6014 29.9878 49.8629 29.7754 50.0426C29.563 50.2223 29.2852 50.353 29.0074 50.4184C28.7297 50.4838 28.4355 50.5164 28.1578 50.5164H26.6055V45.4021H28.1578C28.4355 45.4021 28.7133 45.4347 28.9911 45.5001C29.2689 45.5655 29.5303 45.6798 29.7591 45.8759C29.9878 46.0557 30.1839 46.3171 30.331 46.6439C30.478 46.987 30.5597 47.4282 30.5597 47.9674ZM31.0336 44.8955C30.2819 44.2093 29.3179 43.8661 28.1578 43.8661H24.9061V52.0687H28.1578C28.7297 52.0687 29.2689 51.987 29.7591 51.8073C30.2493 51.6439 30.6741 51.3825 31.0336 51.0393C31.4421 50.6798 31.7362 50.2223 31.9486 49.7158C32.1447 49.1929 32.2591 48.6047 32.2591 47.9674C32.2591 47.3302 32.161 46.7419 31.9486 46.2354C31.7525 45.7125 31.4421 45.255 31.0336 44.8955Z" fill="#14377D"/>
<path d="M76.8179 0.9086H38.8441V38.8825H76.8179V0.9086Z" fill="#14377D"/>
<path d="M40.8702 36.8563H74.7918V2.93474H40.8702V36.8563ZM75.1676 37.2485H40.478V2.55893H75.1676V37.2485Z" fill="white"/>
<path d="M62.4879 13.8334L65.1513 12.0524L67.8147 13.8334L66.9486 10.7452L69.465 8.76809L66.2624 8.63737L65.1513 5.63083L64.0401 8.63737L60.8375 8.76809L63.3539 10.7452L62.4879 13.8334Z" fill="white"/>
<path d="M67.2264 25.2223C66.7852 24.6178 66.2133 24.1439 65.5434 23.8171C66.0336 23.474 66.4421 23.0328 66.7526 22.4936C67.2101 21.7256 67.4388 20.8759 67.4388 19.9772C67.4388 19.4217 67.3408 18.8498 67.1447 18.2942C66.9486 17.7387 66.6709 17.2321 66.3114 16.8073C65.9519 16.3661 65.4944 16.0066 64.9879 15.7289C64.465 15.4511 63.8604 15.304 63.2068 15.304H54.4486V23.2289C53.5826 23.2779 52.7656 23.1145 52.0467 22.7387C51.6709 22.5426 51.3277 22.3138 51.0173 22.0361C50.7722 21.8236 50.5434 21.6112 50.331 21.3661C49.8408 20.7942 49.4486 20.108 49.1872 19.3727C48.9094 18.621 48.7787 17.8204 48.7787 16.987C48.7787 16.2354 48.8931 15.4838 49.1218 14.7485C49.3506 14.0132 49.6937 13.3432 50.1512 12.7713C50.6088 12.1995 51.1807 11.7256 51.8343 11.3661C52.7983 10.8432 54.0238 10.6798 55.3473 10.974C55.7558 11.0557 56.148 11.2027 56.5401 11.4151C56.916 11.6112 57.2754 11.889 57.6022 12.2158C57.929 12.5426 58.2068 12.9674 58.4356 13.4576L58.6316 13.8661L60.9846 12.3302L60.8375 12.0197C60.282 10.8596 59.4323 9.91187 58.3048 9.19292C57.1774 8.47396 55.8048 8.11449 54.2362 8.11449C52.9127 8.11449 51.7199 8.37592 50.6741 8.88246C49.6284 9.389 48.746 10.0753 48.0271 10.9086C47.3081 11.7419 46.7526 12.6896 46.3931 13.7354C46.0173 14.7812 45.8375 15.8432 45.8375 16.889C45.8375 18.0001 46.0336 19.1112 46.4421 20.1896C46.8506 21.2681 47.4225 22.2321 48.1414 23.0818C48.8767 23.9315 49.7591 24.6178 50.7558 25.157C50.8539 25.206 50.9519 25.2387 51.0336 25.2877C51.099 25.3204 51.148 25.3367 51.2133 25.3694C51.3931 25.4511 51.5728 25.5164 51.7526 25.5818C51.8833 25.6308 51.9977 25.6635 52.1284 25.6962C52.3245 25.7452 52.5042 25.7942 52.7003 25.8269C52.831 25.8596 52.9617 25.8759 53.0924 25.8923C53.4192 25.9413 53.7624 25.9576 54.1055 25.9576C54.2199 25.9576 54.3506 25.9576 54.465 25.9576C55.0205 25.9249 55.6088 25.8432 56.197 25.6962C56.8996 25.5164 57.5859 25.255 58.2231 24.8955C58.4682 24.7648 58.697 24.6178 58.9094 24.4707C59.0565 24.3727 59.2035 24.2583 59.3343 24.1439C59.5467 23.9805 59.7428 23.8008 59.9388 23.6047C60.0695 23.474 60.1839 23.3432 60.2983 23.1962C60.4127 23.0491 60.5271 22.9184 60.6251 22.755C60.8212 22.4609 61.0009 22.1341 61.148 21.791L61.246 21.5295L61.0009 21.3008L59.1872 19.6341C59.1872 19.6341 59.0075 20.0589 58.8931 20.255C58.795 20.4511 58.5826 20.7942 58.4356 20.9903C58.2231 21.2681 58.0434 21.4805 57.7983 21.7256C57.6676 21.8563 57.5205 21.9707 57.3898 22.0851V17.9347H62.4879C62.782 17.9347 63.0434 18.0001 63.3048 18.1145C63.5663 18.2289 63.7787 18.3923 63.9421 18.6047C64.1218 18.8171 64.2689 19.0785 64.3833 19.389C64.4977 19.6831 64.5467 20.0263 64.5467 20.3694C64.5467 20.6962 64.4813 21.0066 64.3669 21.3008C64.2526 21.5949 64.0892 21.8563 63.8931 22.0687C63.697 22.2812 63.4682 22.4446 63.2068 22.5753C62.9454 22.706 62.6513 22.755 62.3408 22.755H61.5728C61.4911 22.9021 61.3931 23.0655 61.295 23.2125C61.0663 23.5557 60.8048 23.8825 60.5107 24.1766C60.1186 24.5687 59.6937 24.9119 59.2526 25.206C59.1709 25.255 59.2035 25.2877 59.2526 25.2877H59.4977H63.0107C63.3212 25.2877 63.6153 25.353 63.8767 25.4838C64.1382 25.6145 64.3833 25.7942 64.563 26.023C64.7591 26.2517 64.9225 26.5295 65.0369 26.84C65.1513 27.1504 65.2166 27.4772 65.2166 27.804C65.2166 28.1308 65.1513 28.4413 65.0369 28.7354C64.9225 29.0295 64.7428 29.291 64.5303 29.5197C64.3179 29.7485 64.0565 29.9282 63.7624 30.0589C63.4846 30.1896 63.1741 30.255 62.8473 30.255H57.3898V26.1374C57.063 26.2681 56.7199 26.3661 56.3767 26.4478C55.7885 26.5949 55.1676 26.6929 54.4813 26.7256C54.465 26.7256 54.4486 26.7256 54.4486 26.7256V32.9021H62.831C63.5499 32.9021 64.2362 32.7877 64.8735 32.5753C65.5107 32.3629 66.0826 32.0361 66.5565 31.6276C67.0467 31.2191 67.4388 30.7125 67.7166 30.1243C68.0107 29.5361 68.1414 28.8825 68.1414 28.1798C68.1414 27.0524 67.831 26.0557 67.2264 25.2223Z" fill="white"/>
</svg>
