<svg width="75" height="39" viewBox="0 0 75 39" fill="none" xmlns="http://www.w3.org/2000/svg">
<path d="M5.75384 18.8439C5.9428 20.5433 6.60372 21.8654 7.73659 22.8102C8.89073 23.762 10.3497 24.2651 11.8452 24.2269C13.0914 24.2699 14.3253 23.9674 15.4104 23.3528C16.3711 22.77 17.2254 22.0275 17.9365 21.1574L21.9973 24.2269C20.8311 25.7422 19.3057 26.9431 17.5589 27.7208C15.931 28.4115 14.1801 28.7649 12.4118 28.7599C10.768 28.7698 9.13599 28.4818 7.59487 27.9098C6.14028 27.3778 4.80751 26.5587 3.67579 25.5013C2.55789 24.4403 1.66643 23.1639 1.05514 21.7491C0.393592 20.2053 0.0638797 18.5397 0.0873862 16.8604C0.0640692 15.1814 0.393778 13.5163 1.05514 11.973C1.66633 10.5575 2.55779 9.28048 3.67579 8.21882C4.80731 7.16104 6.14013 6.34177 7.59487 5.80982C9.13599 5.23784 10.768 4.94983 12.4118 4.95976C13.8924 4.94205 15.3614 5.22309 16.7309 5.78606C18.0136 6.31982 19.1599 7.13509 20.085 8.17158C21.0612 9.2948 21.7999 10.604 22.2568 12.0202C22.8028 13.7204 23.0662 15.4987 23.0364 17.2842V18.8426L5.75384 18.8439ZM17.3699 14.5936C17.3382 12.8935 16.8188 11.5714 15.8115 10.6273C14.8042 9.68319 13.4034 9.21115 11.609 9.21115C9.90885 9.21115 8.56308 9.69912 7.57166 10.6751C6.58023 11.651 5.97429 12.9572 5.75384 14.5936H17.3699Z" fill="#19469D"/>
<path d="M50.5096 5.52772H55.8932V8.92716H55.9877C56.7296 7.58013 57.8898 6.51113 59.2929 5.88162C60.7064 5.26167 62.2352 4.94786 63.7786 4.96084C65.3842 4.9356 66.9771 5.24936 68.4533 5.88162C69.7975 6.46669 71.0041 7.32728 71.995 8.40779C72.9846 9.50249 73.74 10.7879 74.2147 12.1851C74.7275 13.69 74.983 15.2706 74.9706 16.8604C74.9836 18.454 74.7117 20.0371 74.1678 21.535C73.667 22.9253 72.9058 24.2073 71.9248 25.3124C70.9572 26.388 69.7749 27.2489 68.4541 27.8394C67.058 28.4618 65.5441 28.7758 64.0156 28.7599C63.0688 28.7708 62.1245 28.6596 61.206 28.4292C60.4421 28.2366 59.7047 27.9511 59.0103 27.5791C58.4348 27.2712 57.8962 26.899 57.4046 26.4696C57.0052 26.1207 56.6414 25.733 56.3184 25.3124H56.1769V38.9593H50.5096V5.52772ZM69.3033 16.8604C69.3053 15.9907 69.1535 15.1275 68.8549 14.3107C68.5634 13.5055 68.1136 12.7667 67.5322 12.1379C66.9057 11.4695 66.1487 10.9368 65.3081 10.5725C64.4675 10.2083 63.5611 10.0204 62.645 10.0204C61.7288 10.0204 60.8224 10.2083 59.9818 10.5725C59.1412 10.9368 58.3842 11.4695 57.7577 12.1379C57.1758 12.7663 56.726 13.5052 56.435 14.3107C55.8371 15.9579 55.8371 17.7628 56.435 19.41C56.7256 20.2155 57.1754 20.9543 57.7577 21.5823C58.3841 22.2508 59.1411 22.7837 59.9817 23.1481C60.8223 23.5124 61.7288 23.7004 62.645 23.7004C63.5611 23.7004 64.4676 23.5124 65.3082 23.1481C66.1488 22.7837 66.9058 22.2508 67.5322 21.5823C68.114 20.954 68.5638 20.2153 68.8549 19.41C69.1536 18.5932 69.3054 17.73 69.3033 16.8604Z" fill="#19469D"/>
<path d="M39.0272 16.8587L47.6717 28.1922H40.7783L35.574 21.3725L30.3822 28.1922H23.4885L44.9217 0.0869446H51.8156L39.0272 16.8587Z" fill="#19469D"/>
<path d="M30.3857 5.52744H23.4912L30.4664 14.684L33.9098 10.1584L30.3857 5.52744Z" fill="#F5821F"/>
<path d="M5.32436 32.4368C5.32436 32.393 5.34176 32.351 5.37275 32.32C5.40373 32.289 5.44575 32.2716 5.48956 32.2716H7.97307C8.47188 32.2683 8.9516 32.4632 9.30679 32.8134C9.66198 33.1636 9.86358 33.6406 9.86729 34.1394C9.85605 34.5277 9.72708 34.9034 9.49746 35.2168C9.26784 35.5301 8.94842 35.7663 8.58153 35.894L9.77146 38.1006C9.78753 38.126 9.79629 38.1555 9.79678 38.1856C9.79726 38.2157 9.78946 38.2454 9.77422 38.2714C9.75898 38.2974 9.73689 38.3187 9.71036 38.333C9.68383 38.3473 9.65389 38.354 9.6238 38.3524H8.71138C8.68319 38.3539 8.65515 38.3474 8.63053 38.3336C8.60591 38.3198 8.58574 38.2993 8.57236 38.2744L7.41725 35.9723H6.453V38.1875C6.45152 38.2308 6.43363 38.2719 6.40296 38.3026C6.37228 38.3332 6.33112 38.351 6.2878 38.3524H5.48876C5.46707 38.3525 5.4456 38.3482 5.42555 38.3399C5.40551 38.3317 5.3873 38.3195 5.37195 38.3042C5.35661 38.2889 5.34443 38.2707 5.33613 38.2507C5.32782 38.2306 5.32355 38.2092 5.32355 38.1875L5.32436 32.4368ZM7.87805 35.0429C8.10862 35.0364 8.32753 34.9401 8.48814 34.7746C8.64875 34.609 8.73835 34.3873 8.73783 34.1566C8.73229 33.932 8.63939 33.7183 8.47886 33.561C8.31833 33.4037 8.10281 33.3151 7.87805 33.3141H6.46164V35.0418L7.87805 35.0429Z" fill="#19469D"/>
<path d="M13.5399 32.4368C13.5399 32.393 13.5573 32.351 13.5883 32.32C13.6193 32.289 13.6613 32.2716 13.7051 32.2716H17.2414C17.2631 32.2716 17.2846 32.2759 17.3046 32.2842C17.3246 32.2925 17.3428 32.3047 17.3581 32.32C17.3734 32.3354 17.3855 32.3536 17.3937 32.3736C17.402 32.3937 17.4062 32.4151 17.4061 32.4368V33.1489C17.4062 33.1706 17.402 33.1921 17.3937 33.2121C17.3855 33.2321 17.3734 33.2504 17.3581 33.2657C17.3428 33.2811 17.3246 33.2932 17.3046 33.3015C17.2846 33.3098 17.2631 33.3141 17.2414 33.3141H14.6694V34.7386H16.8149C16.8582 34.7402 16.8993 34.7581 16.9298 34.7888C16.9604 34.8194 16.9782 34.8606 16.9796 34.9038V35.6249C16.9796 35.6465 16.9754 35.668 16.9671 35.688C16.9589 35.708 16.9468 35.7262 16.9315 35.7415C16.9162 35.7568 16.898 35.769 16.878 35.7772C16.858 35.7855 16.8366 35.7898 16.8149 35.7898H14.6694V37.3101H17.2406C17.2623 37.3101 17.2837 37.3144 17.3038 37.3226C17.3238 37.3309 17.3419 37.3431 17.3572 37.3584C17.3725 37.3737 17.3847 37.3919 17.3929 37.4119C17.4012 37.432 17.4054 37.4534 17.4053 37.4751V38.1875C17.4054 38.2091 17.4012 38.2306 17.3929 38.2506C17.3847 38.2706 17.3725 38.2888 17.3572 38.3042C17.3419 38.3195 17.3238 38.3316 17.3038 38.3399C17.2837 38.3482 17.2623 38.3524 17.2406 38.3524H13.7043C13.6826 38.3524 13.6612 38.3482 13.6411 38.3399C13.6211 38.3317 13.6029 38.3195 13.5875 38.3042C13.5722 38.2889 13.56 38.2707 13.5517 38.2507C13.5434 38.2306 13.5391 38.2092 13.5391 38.1875L13.5399 32.4368Z" fill="#19469D"/>
<path d="M19.7665 38.1267L22.4687 32.2805C22.4807 32.2515 22.5012 32.2268 22.5275 32.2097C22.5538 32.1926 22.5847 32.1839 22.6161 32.1847H22.703C22.7346 32.1826 22.7661 32.1909 22.7927 32.2081C22.8193 32.2254 22.8396 32.2508 22.8507 32.2805L25.5261 38.1267C25.5393 38.151 25.5457 38.1785 25.5446 38.2061C25.5435 38.2338 25.5349 38.2606 25.5197 38.2837C25.5046 38.3069 25.4835 38.3255 25.4586 38.3376C25.4337 38.3497 25.406 38.3548 25.3784 38.3524H24.6226C24.5673 38.3556 24.5124 38.3402 24.4668 38.3088C24.4212 38.2774 24.3873 38.2316 24.3705 38.1788L23.9445 37.2405H21.3479L20.9224 38.1788C20.904 38.2305 20.8698 38.2751 20.8246 38.3062C20.7795 38.3373 20.7257 38.3535 20.6708 38.3524H19.915C19.8874 38.3549 19.8596 38.3498 19.8347 38.3378C19.8097 38.3257 19.7885 38.3071 19.7733 38.284C19.7581 38.2608 19.7494 38.234 19.7482 38.2063C19.747 38.1786 19.7533 38.1511 19.7665 38.1267ZM23.5188 36.2763L22.6501 34.365H22.6231L21.7719 36.2763H23.5188Z" fill="#19469D"/>
<path d="M28.0539 32.4368C28.0538 32.4151 28.058 32.3937 28.0662 32.3736C28.0745 32.3536 28.0866 32.3354 28.1019 32.32C28.1172 32.3047 28.1354 32.2925 28.1554 32.2842C28.1754 32.2759 28.1969 32.2716 28.2185 32.2716H29.0181C29.0614 32.2731 29.1024 32.2911 29.133 32.3217C29.1636 32.3524 29.1814 32.3935 29.1828 32.4368V37.3101H31.398C31.4196 37.3101 31.4411 37.3144 31.4612 37.3226C31.4812 37.3309 31.4994 37.343 31.5148 37.3584C31.5301 37.3737 31.5423 37.3919 31.5506 37.4119C31.5589 37.4319 31.5632 37.4534 31.5632 37.4751V38.1875C31.5632 38.2092 31.5589 38.2306 31.5506 38.2507C31.5423 38.2707 31.5301 38.2889 31.5148 38.3042C31.4994 38.3195 31.4812 38.3317 31.4612 38.3399C31.4411 38.3482 31.4196 38.3524 31.398 38.3524H28.2183C28.1966 38.3524 28.1751 38.3482 28.1551 38.3399C28.1351 38.3316 28.1169 38.3195 28.1016 38.3042C28.0863 38.2888 28.0742 38.2706 28.066 38.2506C28.0577 38.2306 28.0535 38.2091 28.0536 38.1875L28.0539 32.4368Z" fill="#19469D"/>
<path d="M35.3408 33.3141H34.0119C33.9902 33.3142 33.9687 33.3099 33.9486 33.3016C33.9285 33.2933 33.9103 33.2812 33.895 33.2658C33.8796 33.2505 33.8674 33.2322 33.8592 33.2122C33.8509 33.1921 33.8466 33.1706 33.8466 33.1489V32.4368C33.8466 32.4151 33.8509 32.3936 33.8592 32.3735C33.8674 32.3535 33.8796 32.3352 33.895 32.3199C33.9103 32.3046 33.9285 32.2924 33.9486 32.2841C33.9687 32.2758 33.9902 32.2716 34.0119 32.2716H37.8076C37.8514 32.2716 37.8934 32.289 37.9244 32.32C37.9554 32.351 37.9728 32.393 37.9728 32.4368V33.1489C37.9728 33.1927 37.9554 33.2348 37.9244 33.2657C37.8934 33.2967 37.8514 33.3141 37.8076 33.3141H36.4786V38.1875C36.4771 38.2308 36.4593 38.2719 36.4286 38.3026C36.3979 38.3332 36.3567 38.351 36.3134 38.3524H35.5044C35.4611 38.3509 35.4201 38.3331 35.3895 38.3024C35.3589 38.2718 35.3411 38.2307 35.3397 38.1875L35.3408 33.3141Z" fill="#19469D"/>
<path d="M42.7584 35.4251L40.7778 32.5237C40.7613 32.4991 40.7518 32.4704 40.7505 32.4407C40.7492 32.411 40.7561 32.3816 40.7704 32.3556C40.7847 32.3295 40.8058 32.3079 40.8316 32.2931C40.8573 32.2783 40.8866 32.2709 40.9163 32.2716H41.8023C41.8301 32.2724 41.8573 32.28 41.8817 32.2936C41.906 32.3073 41.9266 32.3266 41.9418 32.3499L43.3315 34.3475L44.7212 32.3499C44.7364 32.3267 44.757 32.3074 44.7812 32.2938C44.8054 32.2802 44.8325 32.2726 44.8602 32.2716H45.7548C45.7846 32.2707 45.814 32.278 45.8399 32.2927C45.8658 32.3074 45.8872 32.329 45.9016 32.3551C45.916 32.3811 45.923 32.4107 45.9217 32.4404C45.9204 32.4702 45.911 32.499 45.8944 32.5237L43.8876 35.4162V38.1875C43.8861 38.2308 43.8682 38.2719 43.8376 38.3026C43.8069 38.3332 43.7657 38.351 43.7224 38.3524H42.9233C42.9017 38.3525 42.8802 38.3482 42.8602 38.3399C42.8402 38.3317 42.822 38.3195 42.8066 38.3042C42.7913 38.2889 42.7792 38.2707 42.7709 38.2506C42.7626 38.2306 42.7584 38.2092 42.7584 38.1875V35.4251Z" fill="#19469D"/>
<path d="M17.3702 14.5936C17.3387 12.8935 16.8192 11.5714 15.8118 10.6273C14.8043 9.68318 13.4035 9.21114 11.6093 9.21114C9.90913 9.21114 8.56336 9.69902 7.57193 10.6748C6.58051 11.6506 5.97448 12.9568 5.75384 14.5936H17.3702ZM5.75384 18.8439C5.9428 20.5433 6.60381 21.8653 7.73687 22.81C8.89088 23.762 10.3499 24.2652 11.8455 24.2269C13.0917 24.2698 14.3255 23.9674 15.4106 23.3531C16.3713 22.7702 17.2256 22.0276 17.9365 21.1574L21.9976 24.2269C20.8313 25.7423 19.3058 26.9431 17.5589 27.7208C15.9311 28.4115 14.1803 28.7649 12.4121 28.7599C10.7682 28.7699 9.13605 28.4819 7.59488 27.9098C6.14038 27.3777 4.80771 26.5587 3.67606 25.5013C2.558 24.4405 1.66651 23.164 1.05542 21.7491C0.393636 20.2054 0.0638254 18.5398 0.0873917 16.8603C0.0640472 15.1814 0.393853 13.5163 1.05542 11.973C1.66634 10.5574 2.55784 9.28027 3.67606 8.21881C4.80756 7.16112 6.14027 6.34187 7.59488 5.80981C9.13609 5.23783 10.7682 4.94983 12.4121 4.95975C13.8927 4.94216 15.3616 5.22309 16.7312 5.78578C18.0133 6.3197 19.1591 7.13464 20.0842 8.17049C21.0601 9.29378 21.7988 10.6028 22.256 12.0189C22.802 13.7196 23.0654 15.4984 23.0356 17.2844V18.8428L5.75384 18.8439Z" fill="#19469D"/>
<path d="M69.3036 16.8603C69.3056 15.9907 69.1538 15.1275 68.8552 14.3107C68.5636 13.5055 68.1139 12.7667 67.5325 12.1379C66.906 11.4695 66.149 10.9367 65.3084 10.5724C64.4678 10.2082 63.5614 10.0203 62.6452 10.0203C61.7291 10.0203 60.8227 10.2082 59.9821 10.5724C59.1415 10.9367 58.3845 11.4695 57.758 12.1379C57.1761 12.7663 56.7263 13.5052 56.4352 14.3107C55.8374 15.9579 55.8374 17.7628 56.4352 19.41C56.7259 20.2155 57.1758 20.9543 57.758 21.5823C58.3844 22.2508 59.1414 22.7837 59.982 23.148C60.8226 23.5123 61.7291 23.7002 62.6452 23.7002C63.5614 23.7002 64.4678 23.5123 65.3085 23.148C66.1491 22.7837 66.906 22.2508 67.5325 21.5823C68.1142 20.9539 68.564 20.2153 68.8552 19.41C69.1539 18.5932 69.3057 17.73 69.3036 16.8603ZM50.5096 5.52745H55.8932V8.92716H55.9879C56.7299 7.58006 57.89 6.51097 59.2932 5.88135C60.7068 5.2616 62.2355 4.94789 63.7789 4.96083C65.3845 4.93565 66.9773 5.24931 68.4535 5.88135C69.7978 6.46662 71.0043 7.32728 71.9952 8.40778C72.9847 9.50251 73.74 10.7879 74.2147 12.1851C74.7275 13.69 74.9831 15.2706 74.9706 16.8603C74.9835 18.4539 74.7116 20.037 74.1678 21.535C73.667 22.9253 72.9057 24.2073 71.9248 25.3124C70.9574 26.3882 69.775 27.2491 68.4541 27.8393C67.058 28.4618 65.5441 28.7758 64.0156 28.7599C63.0687 28.7709 62.1243 28.6598 61.2057 28.4292C60.442 28.2363 59.7047 27.9509 59.0103 27.5791C58.4349 27.2711 57.8962 26.8989 57.4046 26.4696C57.0052 26.1207 56.6414 25.733 56.3184 25.3124H56.1769V38.9593H50.5096V5.52745Z" fill="#19469D"/>
<path d="M39.0275 16.8587L47.672 28.1922H40.7783L35.5743 21.3722L30.3824 28.1922H23.4885L44.922 0.0869446H51.8156L39.0275 16.8587Z" fill="#19469D"/>
<path d="M30.3857 5.52744H23.4912L30.4667 14.684L33.9101 10.1584L30.3857 5.52744Z" fill="#F5821F"/>
<path d="M7.87751 35.0429C8.10798 35.0363 8.32679 34.9401 8.48733 34.7746C8.64788 34.6091 8.73747 34.3875 8.73702 34.1569C8.73148 33.9323 8.63861 33.7186 8.47814 33.5613C8.31767 33.404 8.10222 33.3155 7.87751 33.3144H6.46164V35.0421L7.87751 35.0429ZM5.32436 32.4368C5.32436 32.393 5.34176 32.351 5.37275 32.32C5.40373 32.289 5.44575 32.2716 5.48956 32.2716H7.97307C8.47188 32.2683 8.9516 32.4632 9.30679 32.8134C9.66198 33.1636 9.86358 33.6406 9.86729 34.1394C9.85588 34.5276 9.72688 34.9032 9.49734 35.2165C9.2678 35.5299 8.94854 35.7661 8.5818 35.894L9.77173 38.1003C9.7878 38.1258 9.79656 38.1552 9.79704 38.1853C9.79753 38.2155 9.78973 38.2451 9.77449 38.2711C9.75925 38.2971 9.73716 38.3184 9.71063 38.3327C9.6841 38.347 9.65416 38.3537 9.62407 38.3522H8.71165C8.68345 38.3537 8.65538 38.3472 8.63075 38.3334C8.60612 38.3196 8.58596 38.299 8.57263 38.2741L7.41752 35.972H6.45327V38.1872C6.45173 38.2305 6.43382 38.2716 6.40316 38.3022C6.3725 38.3328 6.33137 38.3507 6.28807 38.3522H5.48876C5.46707 38.3522 5.4456 38.3479 5.42555 38.3397C5.40551 38.3314 5.3873 38.3193 5.37195 38.3039C5.35661 38.2886 5.34443 38.2704 5.33613 38.2504C5.32782 38.2304 5.32355 38.2089 5.32355 38.1872L5.32436 32.4368Z" fill="#19469D"/>
<path d="M13.5399 32.4368C13.54 32.393 13.5574 32.351 13.5884 32.3201C13.6193 32.2891 13.6613 32.2717 13.7051 32.2716H17.2414C17.2631 32.2716 17.2845 32.2759 17.3045 32.2843C17.3245 32.2926 17.3427 32.3048 17.358 32.3201C17.3733 32.3354 17.3854 32.3536 17.3936 32.3737C17.4019 32.3937 17.4061 32.4151 17.4061 32.4368V33.1492C17.4061 33.1708 17.4019 33.1923 17.3936 33.2123C17.3854 33.2324 17.3733 33.2506 17.358 33.2659C17.3427 33.2812 17.3245 33.2934 17.3045 33.3017C17.2845 33.3101 17.2631 33.3144 17.2414 33.3144H14.6694V34.7389H16.8149C16.8582 34.7403 16.8993 34.7582 16.9299 34.7888C16.9604 34.8194 16.9782 34.8606 16.9796 34.9038V35.6249C16.9796 35.6465 16.9754 35.668 16.9671 35.688C16.9589 35.708 16.9467 35.7262 16.9314 35.7416C16.9162 35.7569 16.898 35.7691 16.878 35.7774C16.858 35.7857 16.8366 35.79 16.8149 35.7901H14.6694V37.3099H17.2409C17.2626 37.3099 17.284 37.3142 17.304 37.3226C17.3241 37.3309 17.3422 37.3431 17.3575 37.3585C17.3728 37.3738 17.3849 37.3921 17.3932 37.4121C17.4014 37.4322 17.4056 37.4537 17.4055 37.4754V38.1875C17.4056 38.2091 17.4013 38.2306 17.3931 38.2506C17.3848 38.2706 17.3727 38.2888 17.3574 38.3041C17.3421 38.3194 17.3239 38.3316 17.304 38.3399C17.284 38.3481 17.2625 38.3524 17.2409 38.3524H13.7046C13.6608 38.3524 13.6188 38.335 13.5879 38.3041C13.5569 38.2732 13.5394 38.2312 13.5394 38.1875L13.5399 32.4368Z" fill="#19469D"/>
<path d="M23.5201 36.2763L22.6512 34.365H22.6242L21.773 36.2763H23.5201ZM19.7679 38.1267L22.4698 32.2802C22.4819 32.2513 22.5025 32.2267 22.5289 32.2097C22.5552 32.1926 22.5861 32.1839 22.6174 32.1847H22.7044C22.736 32.1827 22.7674 32.1909 22.794 32.2081C22.8206 32.2253 22.8409 32.2506 22.852 32.2802L25.5275 38.1267C25.5406 38.1511 25.5469 38.1785 25.5458 38.2061C25.5446 38.2338 25.536 38.2606 25.5208 38.2837C25.5056 38.3068 25.4845 38.3254 25.4596 38.3375C25.4348 38.3496 25.4071 38.3548 25.3795 38.3524H24.6237C24.5683 38.3555 24.5135 38.3402 24.4678 38.3087C24.4222 38.2772 24.3883 38.2314 24.3715 38.1786L23.9456 37.2405H21.3481L20.9227 38.1786C20.9043 38.2303 20.8701 38.2749 20.825 38.3061C20.7798 38.3373 20.726 38.3535 20.6711 38.3524H19.9153C19.8877 38.3547 19.8601 38.3495 19.8353 38.3374C19.8104 38.3253 19.7893 38.3067 19.7742 38.2836C19.7591 38.2604 19.7505 38.2337 19.7493 38.2061C19.7482 38.1785 19.7547 38.151 19.7679 38.1267Z" fill="#19469D"/>
<path d="M28.0539 32.4368C28.0538 32.4151 28.0581 32.3936 28.0663 32.3736C28.0746 32.3536 28.0868 32.3353 28.1021 32.32C28.1174 32.3047 28.1356 32.2925 28.1556 32.2842C28.1756 32.2759 28.1971 32.2716 28.2188 32.2716H29.0184C29.0616 32.2732 29.1027 32.2911 29.1332 32.3218C29.1638 32.3525 29.1816 32.3935 29.183 32.4368V37.3099H31.3982C31.4199 37.3099 31.4415 37.3142 31.4615 37.3225C31.4816 37.3308 31.4998 37.343 31.5151 37.3584C31.5305 37.3737 31.5427 37.392 31.5509 37.412C31.5592 37.4321 31.5635 37.4536 31.5634 37.4754V38.1875C31.5634 38.2092 31.5592 38.2306 31.5509 38.2507C31.5425 38.2707 31.5304 38.2889 31.515 38.3042C31.4997 38.3195 31.4815 38.3317 31.4614 38.3399C31.4414 38.3482 31.4199 38.3524 31.3982 38.3524H28.2185C28.1969 38.3524 28.1754 38.3482 28.1554 38.3399C28.1353 38.3317 28.1171 38.3195 28.1018 38.3042C28.0865 38.2889 28.0743 38.2707 28.0661 38.2506C28.0578 38.2306 28.0536 38.2091 28.0536 38.1875L28.0539 32.4368Z" fill="#19469D"/>
<path d="M35.3408 33.3141H34.0121C33.9904 33.3142 33.9689 33.3099 33.9489 33.3016C33.9288 33.2933 33.9106 33.2812 33.8952 33.2658C33.8799 33.2505 33.8677 33.2322 33.8594 33.2122C33.8511 33.1921 33.8469 33.1706 33.8469 33.1489V32.4368C33.8469 32.4151 33.8511 32.3936 33.8594 32.3735C33.8677 32.3535 33.8799 32.3352 33.8952 32.3199C33.9106 32.3046 33.9288 32.2924 33.9489 32.2841C33.9689 32.2758 33.9904 32.2716 34.0121 32.2716H37.8079C37.8516 32.2717 37.8936 32.2891 37.9246 32.3201C37.9556 32.351 37.973 32.393 37.9731 32.4368V33.1489C37.973 33.1927 37.9556 33.2347 37.9246 33.2657C37.8936 33.2966 37.8516 33.3141 37.8079 33.3141H36.4789V38.1875C36.4774 38.2308 36.4595 38.272 36.4289 38.3027C36.3982 38.3333 36.357 38.3512 36.3137 38.3527H35.5057C35.4624 38.3511 35.4213 38.3332 35.3907 38.3026C35.3601 38.2719 35.3423 38.2308 35.3408 38.1875V33.3141Z" fill="#19469D"/>
<path d="M42.7587 35.4251L40.7781 32.5237C40.7615 32.4991 40.7521 32.4703 40.7508 32.4406C40.7495 32.4109 40.7564 32.3815 40.7707 32.3554C40.785 32.3294 40.8062 32.3078 40.832 32.293C40.8578 32.2782 40.8871 32.2708 40.9168 32.2716H41.8025C41.8304 32.2725 41.8576 32.28 41.8819 32.2936C41.9062 32.3073 41.9268 32.3266 41.9421 32.3499L43.3318 34.3475L44.7214 32.3499C44.7366 32.3266 44.7572 32.3074 44.7814 32.2938C44.8056 32.2801 44.8327 32.2725 44.8605 32.2716H45.7548C45.7846 32.2706 45.8141 32.2779 45.84 32.2926C45.8659 32.3073 45.8873 32.3289 45.9018 32.3549C45.9162 32.381 45.9232 32.4106 45.922 32.4403C45.9207 32.4701 45.9112 32.499 45.8946 32.5237L43.8878 35.4165V38.1875C43.8863 38.2308 43.8684 38.2719 43.8377 38.3025C43.8071 38.3331 43.7659 38.3509 43.7226 38.3524H42.9236C42.9019 38.3525 42.8805 38.3482 42.8604 38.3399C42.8404 38.3317 42.8222 38.3195 42.8069 38.3042C42.7916 38.2889 42.7794 38.2707 42.7711 38.2506C42.7629 38.2306 42.7586 38.2092 42.7587 38.1875V35.4251Z" fill="#19469D"/>
</svg>
