<svg width="115" height="53" viewBox="0 0 115 53" fill="none" xmlns="http://www.w3.org/2000/svg">
<path d="M113.958 51.5658L113.728 50.9919C113.862 50.8792 113.879 50.8056 113.879 50.6832C113.877 50.4702 113.721 50.3392 113.471 50.3392H113.155V51.5671H113.332V51.0154H113.548L113.772 51.5658H113.958ZM113.332 50.8753V50.4891H113.45C113.62 50.4891 113.693 50.5614 113.694 50.676C113.694 50.777 113.64 50.8753 113.45 50.8753H113.332Z" fill="#858689"/>
<path d="M113.521 52.0524C113.221 52.0524 112.934 51.9349 112.721 51.7256C112.509 51.5164 112.39 51.2326 112.389 50.9366C112.389 50.6405 112.508 50.3566 112.721 50.1473C112.933 49.938 113.22 49.8204 113.52 49.8204C113.82 49.8204 114.108 49.938 114.32 50.1473C114.532 50.3566 114.652 50.6405 114.652 50.9366C114.652 51.5521 114.143 52.0524 113.521 52.0524ZM113.521 49.9647C112.977 49.9647 112.533 50.4031 112.533 50.9366C112.533 51.1945 112.637 51.4418 112.822 51.6242C113.007 51.8066 113.257 51.9091 113.519 51.9091C113.78 51.9091 114.031 51.8066 114.216 51.6242C114.4 51.4418 114.504 51.1945 114.504 50.9366C114.504 50.4031 114.063 49.9647 113.521 49.9647Z" fill="#858689"/>
<path d="M53.9798 40.5555L50.9424 49.8579L47.2838 40.6128H46.3451L50.7437 51.956H51.1563L54.3006 41.9566L57.4983 51.956H57.9116L62.2891 40.6128H61.3285L57.7221 49.8501L54.6458 40.5555H53.9798Z" fill="#858689"/>
<path d="M66.0836 40.6031V51.8635H71.6672V51.1378H66.9682V40.6031H66.0836Z" fill="#858689"/>
<path d="M73.2951 40.6031V51.8635H78.8773V51.1378H74.1757V40.6031H73.2951Z" fill="#858689"/>
<path d="M80.434 51.8635H81.3186V40.6044H80.434V51.8635Z" fill="#858689"/>
<path d="M63.5684 51.8635H64.4583V40.6044H63.5684V51.8635Z" fill="#858689"/>
<path d="M87.2883 40.5444L82.5695 51.8635H83.3921L85.0088 47.9741H89.9976L91.6103 51.8635H92.4375L87.72 40.5444H87.2883ZM87.4949 41.9605L89.6972 47.2524H85.3105L87.4949 41.9605Z" fill="#858689"/>
<path d="M103.231 40.6252L98.8898 45.8519L94.5487 40.6252H93.6621V51.8635H94.5487V41.898H94.5817L98.8898 47.1488L103.195 41.898H103.231V51.8635H104.117V40.6252H103.231Z" fill="#858689"/>
<path d="M111.439 42.4491C110.718 41.53 109.693 41.3118 108.906 41.3118C107.539 41.3118 106.504 42.2361 106.504 43.4587C106.504 46.4544 111.928 45.0233 111.928 48.9609C111.928 50.6897 110.477 52.0394 108.622 52.0394C107.688 52.0394 106.686 51.7879 105.699 51.0506V50.0298C106.81 51.0688 107.688 51.2336 108.572 51.2336C109.926 51.2336 110.973 50.2604 110.973 48.9929C110.973 45.7965 105.551 47.195 105.551 43.4913C105.551 41.8296 107.017 40.5119 108.825 40.5067C109.743 40.5067 110.915 40.8773 111.439 41.4948V42.4491Z" fill="#858689"/>
<path d="M17.8187 40.6382V51.8947H23.6835V50.4402H19.4578V40.6382H17.8187Z" fill="#858689"/>
<path d="M24.7338 40.6382V51.8947H30.5986V50.4402H26.3736V40.6382H24.7338Z" fill="#858689"/>
<path d="M31.6554 40.6382V51.8947H38.2807V50.4402H33.2946V46.9443H37.9645V45.4897H33.2946V42.0902H38.1295V40.6382H31.6554Z" fill="#858689"/>
<path d="M46.699 51.8921L44.5865 46.6335C45.8427 45.6096 45.9847 44.9146 45.9708 43.7883C45.953 41.8407 44.535 40.6382 42.2251 40.6382H39.3482V51.896H40.988V46.8622C40.988 46.8622 42.342 46.8635 42.9414 46.8596L45.0037 51.8921H46.699ZM40.988 45.5581V42.025H42.0409C43.6306 42.025 44.2663 42.6699 44.2835 43.7245C44.3006 44.6677 43.7976 45.5581 42.0409 45.5581H40.988Z" fill="#858689"/>
<path d="M10.1358 40.6382V51.8765H16.7479V50.4239H11.773V46.9319H16.4317V45.4826H11.773V42.0889H16.5987V40.6382H10.1358Z" fill="#858689"/>
<path d="M7.21752 40.6385L6.63856 41.2566L2.43803 45.7668V40.6385H0.801514V51.8539H2.43803V48.0036L4.25872 46.0352L6.64253 51.8565H8.33185V51.8552L7.73573 50.4079L5.42521 44.7715L7.91199 42.0852L9.25144 40.6385H7.21752Z" fill="#858689"/>
<path d="M0.795486 0.9086V34.9602H5.61062V26.9729L9.14177 23.5102L14.0526 34.9602H18.9311L12.4458 19.768L16.9989 14.7908L25.8284 34.9602H27.6821L34.3067 19.3602L41.0383 34.9602H42.8656L52.9553 11.9944H48.0147L41.9413 25.9288L36.0508 11.9944H32.6431L26.7031 25.9288L20.596 11.9944H14.1919L5.61062 20.4454V0.9086L0.795486 0.9086Z" fill="#C33641"/>
</svg>
